<svg xmlns="http://www.w3.org/2000/svg" xmlns:xlink="http://www.w3.org/1999/xlink" version="1.1" x="0px" y="0px" viewBox="0 0 150 187.5">
<g>
<path d="M84.53,40.967 C90.785,41.025 101.84,41.758 100.937,50.455 C100.454,53.558 76.079,50.835 78.774,51.383 C78.774,51.383 80.748,52.039 92.323,52.068 C133.315,52.17 146.731,51.757 146.608,59.733 C146.493,67.17 133.893,66.631 105.049,66.932 C102.501,66.959 102.37,66.932 98.661,68.134 C99.985,69.88 101.556,71.984 101.675,74.172 C101.737,76.96 99.984,79.674 98.19,81.809 C99.918,86.412 98.55,91.604 94.779,94.758 C95.347,98.444 96.142,104.09 88.986,107.208 C86.508,108.265 82.773,109.052 80.079,109.023 L59.071,109.033 C55.445,109.033 51.887,107.781 48.778,105.914 L41.82,105.169 L41.82,57.991 C45.33,56.538 48.614,54.621 52.141,53.204 C55.038,51.778 64.615,41.24 80.741,41.01 C82.695,40.974 81.432,40.993 84.53,40.967 z" fill="current"/>
<path d="M36.182,52.018 C38.235,52.15 38.792,52.543 39.483,54.409 L39.483,105.638 C39.403,108.153 37.744,108.725 35.594,108.845 L6.587,108.845 C3.769,108.839 3.397,107.732 3.392,104.914 L3.392,55.949 C3.397,53.131 4.014,52.023 6.832,52.018 L36.182,52.018 z" fill="current"/>
</g>
</svg>